<?xml version="1.0" standalone="no"?>
<!DOCTYPE svg PUBLIC "-//W3C//DTD SVG 20010904//EN"
 "http://www.w3.org/TR/2001/REC-SVG-20010904/DTD/svg10.dtd">
<svg version="1.0" xmlns="http://www.w3.org/2000/svg"
 width="800.000000pt" height="420.000000pt" viewBox="0 0 800.000000 420.000000"
 preserveAspectRatio="xMidYMid meet">
<metadata>
Created by potrace 1.15, written by Peter Selinger 2001-2017
</metadata>
<g transform="translate(0.000000,420.000000) scale(0.100000,-0.100000)"
fill="#000000" stroke="none">
<path d="M1233 3488 c-11 -13 -26 -45 -32 -72 -34 -140 -152 -256 -301 -296
-25 -7 -89 -16 -142 -19 -71 -6 -103 -12 -117 -25 -21 -19 -78 -162 -110 -276
-88 -317 -82 -699 14 -988 125 -374 368 -678 755 -944 115 -80 288 -178 313
-178 35 0 261 137 417 254 128 95 340 309 422 426 290 410 376 893 248 1395
-34 134 -84 267 -114 302 -21 24 -32 27 -127 34 -241 18 -391 128 -440 324
-22 89 -4 85 -409 85 l-357 0 -20 -22z m230 -510 c82 -29 212 -31 277 -4 65
27 144 25 210 -6 77 -35 404 -252 429 -284 40 -51 31 -98 -96 -479 l-116 -350
-7 -150 c-9 -203 -16 -217 -149 -307 -72 -49 -75 -50 -129 -44 -71 8 -166 51
-197 87 -48 57 -56 140 -20 195 8 13 44 42 80 65 35 22 74 56 86 76 22 35 22
38 10 202 -18 260 -20 313 -13 361 6 39 12 47 48 67 23 13 77 29 120 37 97 17
121 26 163 61 30 26 71 92 71 115 0 6 -62 10 -179 10 -207 0 -209 -1 -237 -90
-24 -81 -30 -374 -10 -555 8 -77 12 -143 8 -147 -14 -13 -127 -28 -206 -28
-88 1 -202 21 -199 36 25 151 28 617 4 695 -6 20 -21 48 -32 63 l-20 26 -181
0 -180 0 6 -31 c16 -80 92 -133 223 -156 94 -16 127 -29 157 -62 18 -19 19
-33 13 -176 -4 -86 -12 -206 -18 -268 -10 -99 -9 -117 4 -144 17 -32 58 -69
117 -106 52 -33 80 -81 80 -136 0 -102 -96 -180 -244 -197 -49 -6 -54 -4 -131
47 -43 30 -89 69 -102 87 -29 44 -47 133 -39 199 10 89 -10 173 -129 533 -65
195 -115 362 -115 383 0 71 20 91 221 222 213 140 233 152 286 164 58 14 69
13 136 -11z m228 -1618 c35 -16 94 -37 131 -46 l68 -17 -43 -60 c-62 -89 -79
-97 -230 -98 -156 -1 -184 10 -239 91 -20 30 -37 58 -37 61 -1 3 27 14 62 23
34 9 91 30 127 46 36 16 72 30 81 30 9 0 45 -13 80 -30z"/>
<path d="M3210 2600 l0 -452 218 4 c239 5 276 12 345 69 94 77 113 231 40 327
-13 18 -45 43 -69 55 l-46 23 41 27 c54 36 81 90 81 165 0 102 -38 159 -135
204 -46 21 -66 23 -262 26 l-213 4 0 -452z m387 257 c21 -21 28 -37 28 -68 0
-58 -43 -95 -119 -104 -86 -11 -86 -11 -86 106 l0 101 75 -4 c66 -3 78 -7 102
-31z m-7 -332 c80 -42 77 -166 -5 -201 -19 -8 -64 -14 -100 -14 l-65 0 0 115
0 115 70 0 c44 0 82 -6 100 -15z"/>
<path d="M4050 2601 l0 -451 110 0 110 0 0 149 0 148 93 5 c171 9 277 81 312
213 32 119 2 243 -73 305 -76 63 -125 74 -349 78 l-203 4 0 -451z m360 264
c43 -22 60 -53 60 -110 0 -90 -38 -127 -142 -140 l-58 -6 0 135 0 136 55 0
c31 0 69 -7 85 -15z"/>
<path d="M4860 2601 l0 -451 110 0 109 0 3 148 3 147 90 6 c215 15 326 117
327 301 0 88 -19 142 -69 198 -73 81 -117 93 -365 98 l-208 4 0 -451z m365
263 c84 -40 85 -188 1 -228 -17 -8 -56 -16 -86 -18 l-55 -3 -3 133 -3 132 57
0 c31 0 71 -7 89 -16z"/>
<path d="M3214 1686 c-3 -8 -4 -102 -2 -208 4 -209 7 -226 65 -280 36 -35 73
-48 131 -48 73 0 117 17 155 59 49 55 59 110 55 316 -3 165 -4 170 -25 173
-21 3 -21 1 -25 -195 -3 -216 -9 -241 -69 -285 -33 -25 -129 -27 -165 -4 -54
36 -59 54 -64 276 -5 203 -5 205 -28 208 -13 2 -24 -3 -28 -12z"/>
<path d="M3767 1694 c-4 -4 -7 -126 -7 -271 l0 -263 25 0 25 0 0 220 c0 121 3
220 8 220 4 -1 75 -100 157 -220 120 -176 155 -220 173 -220 l22 0 0 270 0
270 -25 0 -25 0 -2 -220 -3 -220 -150 217 c-143 208 -174 241 -198 217z"/>
<path d="M4357 1694 c-4 -4 -7 -126 -7 -271 l0 -263 30 0 30 0 -2 268 c-3 260
-4 267 -23 270 -12 2 -24 0 -28 -4z"/>
<path d="M4541 1691 c-12 -7 3 -54 79 -248 115 -294 115 -295 142 -291 18 2
38 47 125 268 56 146 103 268 103 272 0 5 -11 8 -24 8 -27 0 -33 -14 -152
-337 -27 -73 -51 -133 -54 -133 -3 0 -45 106 -94 235 -49 129 -94 235 -100
235 -6 0 -17 -4 -25 -9z"/>
<path d="M5100 1430 l0 -270 145 0 c138 0 145 1 145 20 0 19 -7 20 -120 20
l-120 0 0 105 0 105 89 0 c91 0 106 5 95 34 -5 13 -23 16 -95 16 l-89 0 0 95
0 95 115 0 115 0 0 25 0 25 -140 0 -140 0 0 -270z"/>
<path d="M5528 1431 l-3 -271 28 0 27 0 0 115 c0 94 3 117 15 121 36 14 62 -9
145 -126 71 -101 88 -119 105 -114 11 4 22 8 24 10 3 3 -38 64 -123 181 l-37
52 33 14 c19 8 46 29 61 46 23 27 27 42 27 90 0 104 -51 142 -202 149 l-97 5
-3 -272z m197 205 c38 -16 55 -42 55 -85 0 -74 -48 -111 -144 -111 l-56 0 0
105 0 105 55 0 c31 0 71 -6 90 -14z"/>
<path d="M6055 1686 c-50 -22 -68 -51 -73 -114 -5 -76 13 -98 129 -158 88 -45
119 -77 119 -119 0 -29 -28 -71 -55 -83 -36 -16 -108 -15 -151 3 -40 16 -54
13 -54 -14 0 -25 44 -43 120 -48 120 -8 196 57 187 160 -5 62 -38 97 -139 148
-81 41 -108 68 -108 109 0 62 67 100 142 80 24 -7 48 -16 54 -21 10 -8 23 15
24 43 0 26 -144 37 -195 14z"/>
<path d="M6440 1430 l0 -270 25 0 25 0 0 270 0 270 -25 0 -25 0 0 -270z"/>
<path d="M6620 1675 c0 -25 1 -25 85 -25 l85 0 0 -245 0 -245 25 0 25 0 0 245
0 245 91 0 c88 0 90 1 87 23 -3 22 -4 22 -200 25 l-198 2 0 -25z"/>
<path d="M7103 1692 c-9 -6 15 -52 82 -162 l95 -154 0 -108 0 -108 25 0 25 0
0 110 0 110 95 154 c52 85 95 157 95 161 0 3 -12 5 -27 3 -23 -3 -39 -23 -104
-131 -42 -71 -81 -127 -85 -126 -5 2 -43 59 -85 129 -74 121 -91 139 -116 122z"/>
</g>
</svg>
